<?xml version="1.0" standalone="no"?>
<!DOCTYPE svg PUBLIC "-//W3C//DTD SVG 20010904//EN"
 "http://www.w3.org/TR/2001/REC-SVG-20010904/DTD/svg10.dtd">
<svg version="1.0" xmlns="http://www.w3.org/2000/svg"
 width="752.000000pt" height="820.000000pt" viewBox="0 0 752.000000 820.000000"
 preserveAspectRatio="xMidYMid meet">

<g transform="translate(0.000000,820.000000) scale(0.100000,-0.100000)"
fill="#000000" stroke="none">
<path d="M0 4100 l0 -4100 3760 0 3760 0 0 4100 0 4100 -3760 0 -3760 0 0
-4100z m3120 1779 c80 -5 242 -10 360 -11 152 0 227 -4 255 -13 22 -8 83 -27
135 -44 97 -30 133 -44 230 -88 30 -14 77 -34 104 -45 27 -10 61 -27 75 -36
14 -9 48 -28 74 -42 27 -14 71 -44 99 -67 59 -51 85 -55 94 -15 3 15 8 33 10
41 3 8 -1 18 -8 23 -10 8 -10 11 0 15 6 2 10 9 6 14 -3 5 -1 9 5 9 17 0 35 41
46 108 l10 62 80 -63 c44 -35 107 -80 140 -100 33 -21 77 -52 97 -69 33 -28
41 -30 63 -20 14 6 25 19 25 27 0 10 5 13 12 9 8 -5 9 -2 5 9 -3 9 -2 19 3 22
7 4 6 13 0 25 -8 16 -8 18 5 14 12 -5 14 0 9 24 -3 17 -1 32 5 36 13 9 86 -58
140 -128 22 -29 52 -58 66 -66 13 -7 27 -21 30 -30 3 -9 18 -31 33 -48 21 -23
35 -61 60 -159 41 -163 49 -205 56 -274 4 -31 16 -109 28 -175 12 -65 22 -146
24 -179 1 -33 2 -77 3 -97 1 -28 5 -38 18 -38 9 0 14 -3 11 -6 -23 -23 -370
72 -388 106 -13 24 -96 76 -150 94 -109 36 -205 49 -365 49 -231 0 -373 -35
-452 -112 -36 -34 -43 -75 -16 -85 9 -4 42 -4 73 -1 l55 7 -50 -27 c-55 -30
-123 -82 -173 -134 -23 -23 -37 -31 -50 -26 -112 48 -194 68 -291 73 -116 5
-178 -5 -290 -50 -82 -32 -69 -36 -158 48 -30 29 -71 60 -91 70 -20 9 -46 23
-57 31 -18 13 -15 14 32 8 66 -9 93 0 93 29 0 26 -59 86 -109 111 -66 33 -207
55 -361 55 -239 0 -419 -46 -496 -126 -20 -21 -225 -94 -304 -108 -34 -6 -35
-5 -36 27 -1 17 -3 43 -4 57 -2 29 7 126 15 149 2 9 14 84 25 166 56 406 140
634 286 780 93 92 198 146 354 181 69 15 311 17 500 3z m1487 -1285 c-3 -3
-12 -4 -19 -1 -8 3 -5 6 6 6 11 1 17 -2 13 -5z m-74 -11 c-7 -2 -19 -2 -25 0
-7 3 -2 5 12 5 14 0 19 -2 13 -5z m-1588 -13 c13 -5 14 -9 5 -9 -8 0 -24 4
-35 9 -13 5 -14 9 -5 9 8 0 24 -4 35 -9z m1525 1 c-8 -5 -33 -12 -55 -15 l-40
-6 45 14 c53 17 71 19 50 7z m-1473 -17 c-3 -3 -12 -4 -19 -1 -8 3 -5 6 6 6
11 1 17 -2 13 -5z m-1070 -26 c-3 -8 -6 -5 -6 6 -1 11 2 17 5 13 3 -3 4 -12 1
-19z m863 7 c201 -24 310 -69 412 -168 82 -80 92 -108 92 -277 1 -106 -3 -140
-26 -222 -43 -155 -120 -292 -209 -372 -28 -25 -88 -64 -133 -86 -106 -51
-211 -72 -346 -68 -191 5 -302 50 -420 168 -82 83 -128 161 -157 270 -22 79
-24 304 -4 395 14 64 69 187 99 220 66 74 155 114 302 134 166 23 246 24 390
6z m2220 -11 c111 -17 156 -31 202 -64 55 -41 128 -119 128 -138 0 -10 6 -26
14 -37 25 -37 48 -149 53 -267 4 -85 3 -118 -6 -118 -6 0 -11 14 -11 30 0 17
-4 30 -10 30 -5 0 -10 7 -10 15 0 8 -4 15 -10 15 -5 0 -10 6 -10 13 0 8 -11
20 -25 27 -14 7 -25 19 -25 26 0 7 -9 15 -20 18 -11 3 -29 9 -40 12 -29 8 -25
-9 15 -66 19 -27 35 -56 35 -64 0 -8 5 -18 10 -21 6 -3 10 -15 10 -26 0 -11 9
-30 21 -42 18 -19 22 -20 32 -7 7 8 18 16 25 18 35 7 -22 -191 -79 -274 -73
-107 -198 -214 -252 -214 -10 0 -15 -5 -12 -11 4 -6 1 -9 -6 -8 -21 4 -89 -12
-95 -22 -9 -15 -249 -10 -332 7 -172 35 -317 136 -401 280 -45 77 -93 202
-111 290 -21 100 -14 318 12 367 13 25 75 87 123 125 147 111 460 154 775 106z
m-1283 -111 c-20 -2 -52 -2 -70 0 -17 2 0 4 38 4 39 0 53 -2 32 -4z m-387 -68
c0 -8 -2 -15 -4 -15 -2 0 -6 7 -10 15 -3 8 -1 15 4 15 6 0 10 -7 10 -15z m505
-6 c22 -6 62 -20 89 -32 l48 -20 -6 -106 c-11 -169 20 -339 90 -489 13 -29 24
-55 24 -59 0 -14 98 -142 141 -183 96 -92 186 -143 325 -181 107 -30 336 -32
434 -5 123 35 216 92 318 193 50 51 92 97 92 104 0 17 47 69 55 61 5 -4 5 1 2
10 -3 10 -2 20 3 23 6 4 10 -7 10 -24 0 -17 -3 -31 -7 -31 -5 0 -8 -81 -7
-180 0 -99 -2 -180 -6 -180 -9 0 -30 -94 -30 -133 0 -18 -9 -57 -20 -87 -11
-30 -20 -67 -20 -81 0 -14 -8 -37 -19 -50 -10 -13 -21 -40 -25 -61 -4 -20 -13
-39 -21 -42 -8 -3 -15 -12 -15 -20 0 -19 -43 -101 -64 -122 -9 -8 -16 -22 -16
-30 0 -8 -4 -14 -10 -14 -5 0 -10 -6 -10 -12 0 -7 -15 -30 -33 -50 -17 -21
-50 -59 -72 -85 -84 -100 -407 -413 -426 -413 -4 0 -9 -4 -11 -8 -1 -4 -20
-18 -40 -31 -21 -12 -38 -27 -38 -32 0 -5 -7 -9 -15 -9 -8 0 -15 -5 -15 -10 0
-6 -8 -13 -17 -17 -10 -3 -41 -23 -68 -43 -28 -20 -65 -45 -83 -54 -17 -9 -32
-21 -32 -25 0 -5 -14 -13 -32 -16 -17 -4 -45 -15 -62 -25 -17 -9 -49 -20 -71
-24 -22 -4 -44 -11 -50 -14 -18 -13 -159 -33 -300 -44 -107 -9 -176 -9 -290 1
-82 7 -154 16 -160 20 -5 5 -32 11 -60 14 -46 4 -160 40 -195 62 -8 5 -25 11
-37 13 -13 1 -35 14 -49 27 -15 14 -31 25 -35 25 -10 0 -114 73 -167 116 -18
14 -50 38 -71 53 -94 64 -361 323 -443 431 -14 19 -38 48 -52 64 -14 16 -26
32 -26 35 0 3 -10 18 -22 32 -41 46 -123 207 -143 282 -7 29 -14 46 -14 38 -1
-21 -12 -6 -15 21 -3 24 -32 127 -47 166 -5 13 -9 50 -9 83 0 33 -5 69 -10 80
-6 10 -12 67 -14 127 -1 59 -6 114 -11 122 -5 8 -4 11 3 6 6 -3 13 -2 16 3 4
5 2 12 -4 16 -14 9 -13 25 3 24 6 0 32 -25 57 -55 88 -106 213 -188 345 -225
65 -18 106 -22 215 -22 199 0 339 39 463 132 176 130 283 316 331 571 9 47 21
102 28 123 8 26 8 41 1 45 -5 4 -15 36 -20 72 -9 52 -8 69 3 87 15 24 100 59
177 73 60 10 203 4 262 -11z m209 6 c-4 -8 -11 -15 -16 -15 -6 0 -5 6 2 15 7
8 14 15 16 15 2 0 1 -7 -2 -15z m-2327 -162 c18 -10 50 -39 73 -65 l41 -47 -2
-143 c-2 -190 -7 -201 -49 -113 -59 125 -146 235 -185 235 -17 0 -28 -33 -20
-58 3 -11 26 -34 52 -52 58 -42 101 -88 109 -117 3 -11 13 -23 22 -25 30 -8
65 -139 68 -258 2 -58 8 -132 13 -165 45 -269 46 -295 15 -295 -8 0 -17 13
-21 30 -3 17 -10 33 -14 36 -5 3 -9 14 -9 25 0 13 -7 19 -22 19 -21 0 -21 0 3
-26 l24 -26 -24 -19 c-29 -23 -93 -25 -112 -3 -10 12 -10 17 0 23 9 6 8 10 -6
13 -14 4 -23 21 -32 64 -7 32 -24 111 -38 174 -15 68 -26 152 -27 205 -1 50
-8 149 -15 220 -11 105 -12 146 -2 216 12 79 16 89 52 127 43 47 59 50 106 25z
m4114 -12 c60 -50 85 -181 69 -354 -6 -61 -13 -119 -16 -127 -3 -8 -9 -58 -14
-110 -8 -94 -70 -374 -97 -438 -16 -38 -26 -43 -85 -46 -35 -1 -42 -5 -40 -19
3 -20 -16 -22 -52 -5 -28 12 -40 38 -31 67 3 10 15 79 26 152 11 74 22 145 24
159 2 14 6 70 8 125 2 75 8 112 24 147 27 60 128 185 164 203 33 18 69 66 69
93 0 63 -102 -2 -156 -99 -10 -19 -22 -36 -25 -39 -10 -8 -49 -92 -49 -106 0
-6 -6 -14 -14 -17 -20 -8 -26 35 -26 187 1 146 2 149 85 213 68 52 87 54 136
14z m-344 -423 c-3 -8 -6 -5 -6 6 -1 11 2 17 5 13 3 -3 4 -12 1 -19z m-20 -70
c-3 -8 -6 -5 -6 6 -1 11 2 17 5 13 3 -3 4 -12 1 -19z m-3497 -113 c0 -5 -5 -3
-10 5 -5 8 -10 20 -10 25 0 6 5 3 10 -5 5 -8 10 -19 10 -25z m-25 5 c3 -5 1
-10 -4 -10 -6 0 -11 5 -11 10 0 6 2 10 4 10 3 0 8 -4 11 -10z m3294 -103 c-34
-28 -118 -87 -123 -87 -4 0 21 22 56 49 35 27 65 47 67 45 2 -2 2 -6 0 -7z
m-3045 -46 c-3 -3 -15 6 -27 18 l-22 24 27 -19 c14 -10 24 -21 22 -23z m96
-57 c0 -2 -13 2 -30 11 -16 9 -30 18 -30 21 0 2 14 -2 30 -11 17 -9 30 -18 30
-21z m2810 11 c0 -2 -10 -9 -22 -15 -22 -11 -22 -10 -4 4 21 17 26 19 26 11z"/>
<path d="M2563 4255 c-150 -41 -236 -105 -300 -224 -17 -31 -17 -111 0 -111 7
0 25 24 39 54 50 101 126 168 240 210 35 13 82 26 105 29 l42 5 -47 -32 c-165
-111 -187 -342 -47 -490 27 -29 43 -37 82 -42 39 -4 45 -3 29 6 -30 20 -56 49
-56 65 0 7 -6 18 -12 22 -19 12 -45 75 -40 96 3 14 10 8 31 -25 42 -65 98 -99
173 -105 55 -4 70 -1 118 24 72 38 112 100 118 184 2 32 8 59 13 59 5 0 9 -10
9 -23 0 -13 4 -27 9 -32 5 -6 11 -36 13 -67 4 -48 0 -67 -22 -113 -15 -30 -25
-55 -23 -55 2 0 17 14 33 32 42 46 65 119 65 208 0 63 -5 83 -28 124 -15 27
-25 51 -23 54 11 10 116 -103 144 -156 l31 -57 1 35 c0 41 -27 99 -66 143 -19
21 -23 32 -14 37 8 5 5 9 -9 13 -14 3 -19 1 -14 -6 4 -7 -8 0 -27 16 -19 15
-40 31 -46 36 -21 17 -131 61 -189 76 -86 22 -267 27 -332 10z m186 -161 c12
-15 21 -34 21 -44 0 -10 -9 -29 -21 -44 -30 -38 -79 -36 -113 5 -24 29 -25 32
-11 59 29 56 90 68 124 24z m-152 -211 c-3 -10 -5 -4 -5 12 0 17 2 24 5 18 2
-7 2 -21 0 -30z"/>
<path d="M2196 4104 c-3 -8 -10 -12 -16 -9 -16 10 -117 -100 -125 -135 -7 -31
3 -96 13 -86 3 3 11 1 19 -6 7 -6 15 -9 17 -7 9 11 76 158 76 168 0 6 4 11 8
11 9 0 42 54 42 69 0 17 -27 13 -34 -5z"/>
<path d="M4595 4264 c-87 -11 -215 -51 -215 -66 0 -6 -7 -8 -15 -4 -8 3 -15 1
-15 -4 0 -5 -6 -7 -14 -4 -8 3 -17 0 -22 -7 -4 -8 -3 -10 4 -5 7 4 12 5 12 3
0 -9 -95 -62 -104 -59 -5 2 -3 -4 4 -13 11 -13 10 -15 -6 -9 -10 4 -16 4 -12
0 4 -5 -4 -20 -17 -34 -30 -32 -65 -123 -65 -169 0 -33 3 -30 40 44 43 87 108
157 180 193 l45 22 -26 -28 c-138 -150 -73 -446 105 -479 38 -8 38 -7 20 13
-10 12 -21 19 -26 16 -4 -3 -8 2 -8 10 0 9 -4 16 -9 16 -5 0 -14 12 -20 28 -7
15 -18 38 -25 52 -17 32 -29 80 -19 80 5 0 16 -18 26 -39 10 -22 37 -52 65
-72 44 -32 52 -34 122 -34 64 0 81 4 117 27 86 56 128 155 103 244 -16 56 -8
68 10 14 7 -22 17 -40 22 -40 4 0 8 -18 8 -41 0 -22 4 -38 9 -35 33 21 -2
-144 -37 -171 -9 -8 -11 -13 -4 -13 7 0 25 18 41 41 99 135 73 320 -59 427
l-55 45 40 -7 c121 -22 270 -133 315 -233 13 -29 27 -53 31 -53 26 0 28 64 2
113 -27 55 -101 134 -151 162 -100 56 -267 85 -397 69z m-64 -166 c40 -49 10
-121 -51 -121 -24 0 -40 7 -56 27 -22 24 -23 30 -11 59 23 55 85 74 118 35z"/>
<path d="M4148 4165 c3 -28 0 -45 -7 -45 -6 0 -11 8 -11 18 0 13 -2 14 -9 3
-7 -11 -9 -11 -14 0 -9 22 -6 -53 3 -81 7 -21 8 -19 9 17 1 32 4 41 15 37 16
-6 21 0 29 37 4 14 1 33 -6 43 -10 14 -12 9 -9 -29z"/>
<path d="M4230 4200 c-9 -6 -10 -10 -3 -10 6 0 15 5 18 10 8 12 4 12 -15 0z"/>
<path d="M3370 3110 c-17 -31 6 -99 46 -136 40 -37 143 -72 236 -81 117 -10
273 32 325 88 20 23 53 88 53 106 -1 32 -50 39 -50 7 0 -8 -4 -14 -9 -14 -5 0
-23 -13 -39 -29 -25 -23 -43 -29 -99 -34 -92 -9 -322 -1 -355 11 -14 6 -40 31
-58 56 -17 25 -33 46 -35 46 -2 0 -9 -9 -15 -20z"/>
<path d="M4100 2597 c-166 -23 -575 -30 -740 -11 -90 10 -233 16 -260 12 l-25
-4 28 -12 c48 -20 217 -51 367 -66 132 -14 425 -16 447 -3 4 3 40 8 78 11 75
7 300 53 325 67 10 6 2 9 -25 10 -93 5 -143 4 -195 -4z"/>
<path d="M1757 3460 c3 -14 9 -36 13 -50 l7 -25 8 30 c4 17 15 38 23 48 8 9
13 17 11 18 -2 0 -18 1 -36 2 -30 2 -32 0 -26 -23z"/>
<path d="M5666 3461 c13 -13 23 -15 32 -9 21 17 13 28 -20 28 -31 0 -31 0 -12
-19z"/>
<path d="M5673 3183 c9 -2 25 -2 35 0 9 3 1 5 -18 5 -19 0 -27 -2 -17 -5z"/>
<path d="M5740 3160 c0 -6 7 -10 15 -10 8 0 15 2 15 4 0 2 -7 6 -15 10 -8 3
-15 1 -15 -4z"/>
</g>
</svg>
